<?xml version="1.0" encoding="utf-8" standalone="no"?>
<!DOCTYPE svg PUBLIC "-//W3C//DTD SVG 1.1//EN"
  "http://www.w3.org/Graphics/SVG/1.1/DTD/svg11.dtd">
<svg xmlns:xlink="http://www.w3.org/1999/xlink" width="757.596303pt" height="626.378109pt" viewBox="0 0 757.596303 626.378109" xmlns="http://www.w3.org/2000/svg" version="1.1">
 <metadata>
  <rdf:RDF xmlns:dc="http://purl.org/dc/elements/1.1/" xmlns:cc="http://creativecommons.org/ns#" xmlns:rdf="http://www.w3.org/1999/02/22-rdf-syntax-ns#">
   <cc:Work>
    <dc:type rdf:resource="http://purl.org/dc/dcmitype/StillImage"/>
    <dc:date>2025-01-26T18:08:07.193232</dc:date>
    <dc:format>image/svg+xml</dc:format>
    <dc:creator>
     <cc:Agent>
      <dc:title>Matplotlib v3.6.2, https://matplotlib.org/</dc:title>
     </cc:Agent>
    </dc:creator>
   </cc:Work>
  </rdf:RDF>
 </metadata>
 <defs>
  <style type="text/css">*{stroke-linejoin: round; stroke-linecap: butt}</style>
 </defs>
 <g id="figure_1">
  <g id="patch_1">
   <path d="M 0 626.378109 
L 757.596303 626.378109 
L 757.596303 0 
L 0 0 
L 0 626.378109 
z
" style="fill: none"/>
  </g>
  <g id="axes_1">
   <g id="patch_2">
    <path d="M 80.796303 569.210347 
L 750.396303 569.210347 
L 750.396303 14.810347 
L 80.796303 14.810347 
L 80.796303 569.210347 
z
" style="fill: none"/>
   </g>
   <g id="matplotlib.axis_1">
    <g id="xtick_1">
     <g id="line2d_1">
      <defs>
       <path id="m71a56d766e" d="M 0 0 
L 0 3.5 
" style="stroke: #000000; stroke-width: 0.8"/>
      </defs>
      <g>
       <use xlink:href="#m71a56d766e" x="147.756303" y="569.210347" style="stroke: #000000; stroke-width: 0.8"/>
      </g>
     </g>
     <g id="text_1">
      <!-- $\mathdefault{−4}$ -->
      <g transform="translate(134.206734 591.43104) scale(0.22 -0.22)">
       <defs>
        <path id="CMSY10-0" d="M 4218 1472 
C 4326 1472 4442 1472 4442 1600 
C 4442 1728 4326 1728 4218 1728 
L 755 1728 
C 646 1728 531 1728 531 1600 
C 531 1472 646 1472 755 1472 
L 4218 1472 
z
" transform="scale(0.015625)"/>
        <path id="CMR17-34" d="M 2150 4122 
C 2150 4256 2144 4256 2029 4256 
L 128 1254 
L 128 1088 
L 1779 1088 
L 1779 457 
C 1779 224 1766 160 1318 160 
L 1197 160 
L 1197 0 
C 1402 0 1747 0 1965 0 
C 2182 0 2528 0 2733 0 
L 2733 160 
L 2611 160 
C 2163 160 2150 224 2150 457 
L 2150 1088 
L 2803 1088 
L 2803 1254 
L 2150 1254 
L 2150 4122 
z
M 1798 3703 
L 1798 1254 
L 256 1254 
L 1798 3703 
z
" transform="scale(0.015625)"/>
       </defs>
       <use xlink:href="#CMSY10-0" transform="scale(0.996264)"/>
       <use xlink:href="#CMR17-34" transform="translate(77.487468 0) scale(0.996264)"/>
      </g>
     </g>
    </g>
    <g id="xtick_2">
     <g id="line2d_2">
      <g>
       <use xlink:href="#m71a56d766e" x="281.676303" y="569.210347" style="stroke: #000000; stroke-width: 0.8"/>
      </g>
     </g>
     <g id="text_2">
      <!-- $\mathdefault{−2}$ -->
      <g transform="translate(268.126734 591.43104) scale(0.22 -0.22)">
       <defs>
        <path id="CMR17-32" d="M 2669 989 
L 2554 989 
C 2490 536 2438 459 2413 420 
C 2381 369 1920 369 1830 369 
L 602 369 
C 832 619 1280 1072 1824 1597 
C 2214 1967 2669 2402 2669 3035 
C 2669 3790 2067 4224 1395 4224 
C 691 4224 262 3604 262 3030 
C 262 2780 448 2748 525 2748 
C 589 2748 781 2787 781 3010 
C 781 3207 614 3264 525 3264 
C 486 3264 448 3258 422 3245 
C 544 3790 915 4058 1306 4058 
C 1862 4058 2227 3617 2227 3035 
C 2227 2479 1901 2000 1536 1584 
L 262 146 
L 262 0 
L 2515 0 
L 2669 989 
z
" transform="scale(0.015625)"/>
       </defs>
       <use xlink:href="#CMSY10-0" transform="scale(0.996264)"/>
       <use xlink:href="#CMR17-32" transform="translate(77.487468 0) scale(0.996264)"/>
      </g>
     </g>
    </g>
    <g id="xtick_3">
     <g id="line2d_3">
      <g>
       <use xlink:href="#m71a56d766e" x="415.596303" y="569.210347" style="stroke: #000000; stroke-width: 0.8"/>
      </g>
     </g>
     <g id="text_3">
      <!-- $\mathdefault{0}$ -->
      <g transform="translate(410.570351 591.43104) scale(0.22 -0.22)">
       <defs>
        <path id="CMR17-30" d="M 2688 2025 
C 2688 2416 2682 3080 2413 3591 
C 2176 4039 1798 4198 1466 4198 
C 1158 4198 768 4058 525 3597 
C 269 3118 243 2524 243 2025 
C 243 1661 250 1106 448 619 
C 723 -39 1216 -128 1466 -128 
C 1760 -128 2208 -7 2470 600 
C 2662 1042 2688 1559 2688 2025 
z
M 1466 -26 
C 1056 -26 813 325 723 812 
C 653 1188 653 1738 653 2096 
C 653 2588 653 2997 736 3387 
C 858 3929 1216 4096 1466 4096 
C 1728 4096 2067 3923 2189 3400 
C 2272 3036 2278 2607 2278 2096 
C 2278 1680 2278 1169 2202 792 
C 2067 95 1690 -26 1466 -26 
z
" transform="scale(0.015625)"/>
       </defs>
       <use xlink:href="#CMR17-30" transform="scale(0.996264)"/>
      </g>
     </g>
    </g>
    <g id="xtick_4">
     <g id="line2d_4">
      <g>
       <use xlink:href="#m71a56d766e" x="549.516303" y="569.210347" style="stroke: #000000; stroke-width: 0.8"/>
      </g>
     </g>
     <g id="text_4">
      <!-- $\mathdefault{2}$ -->
      <g transform="translate(544.490351 591.43104) scale(0.22 -0.22)">
       <use xlink:href="#CMR17-32" transform="scale(0.996264)"/>
      </g>
     </g>
    </g>
    <g id="xtick_5">
     <g id="line2d_5">
      <g>
       <use xlink:href="#m71a56d766e" x="683.436303" y="569.210347" style="stroke: #000000; stroke-width: 0.8"/>
      </g>
     </g>
     <g id="text_5">
      <!-- $\mathdefault{4}$ -->
      <g transform="translate(678.410351 591.43104) scale(0.22 -0.22)">
       <use xlink:href="#CMR17-34" transform="scale(0.996264)"/>
      </g>
     </g>
    </g>
    <g id="text_6">
     <!-- x -->
     <g transform="translate(410.284086 614.914921) scale(0.22 -0.22)">
      <defs>
       <path id="CMR17-78" d="M 1664 1477 
C 1856 1726 2074 2006 2253 2216 
C 2464 2458 2707 2560 2989 2560 
L 2989 2726 
C 2880 2726 2656 2726 2541 2726 
C 2368 2726 2170 2726 2022 2732 
L 2022 2566 
C 2112 2553 2163 2489 2163 2400 
C 2163 2285 2099 2215 2067 2171 
L 1594 1573 
L 1030 2306 
C 973 2376 973 2388 973 2420 
C 973 2497 1037 2560 1146 2560 
L 1146 2732 
C 992 2726 717 2726 557 2726 
C 384 2726 179 2726 38 2732 
L 38 2560 
C 384 2560 461 2534 614 2343 
L 1350 1395 
C 1363 1382 1395 1344 1395 1325 
C 1395 1299 838 619 768 530 
C 480 185 179 160 6 160 
L 6 0 
C 115 0 339 0 454 0 
C 582 0 864 0 979 -6 
L 979 160 
C 941 166 838 179 838 325 
C 838 440 890 510 947 586 
L 1478 1236 
L 2035 512 
C 2086 442 2163 346 2163 301 
C 2163 211 2086 160 1984 160 
L 1984 -6 
C 2138 0 2413 0 2573 0 
C 2746 0 2950 0 3091 -6 
L 3091 160 
C 2771 160 2675 172 2522 370 
L 1664 1477 
z
" transform="scale(0.015625)"/>
      </defs>
      <use xlink:href="#CMR17-78" transform="scale(0.996264)"/>
     </g>
    </g>
   </g>
   <g id="matplotlib.axis_2">
    <g id="ytick_1">
     <g id="line2d_6">
      <defs>
       <path id="mc044248bce" d="M 0 0 
L -3.5 0 
" style="stroke: #000000; stroke-width: 0.8"/>
      </defs>
      <g>
       <use xlink:href="#mc044248bce" x="80.796303" y="569.210347" style="stroke: #000000; stroke-width: 0.8"/>
      </g>
     </g>
     <g id="text_7">
      <!-- $\mathdefault{−2.5}$ -->
      <g transform="translate(30.683881 576.820693) scale(0.22 -0.22)">
       <defs>
        <path id="CMMI12-3a" d="M 1178 307 
C 1178 492 1024 619 870 619 
C 685 619 557 466 557 313 
C 557 128 710 0 864 0 
C 1050 0 1178 153 1178 307 
z
" transform="scale(0.015625)"/>
        <path id="CMR17-35" d="M 730 3692 
C 794 3666 1056 3584 1325 3584 
C 1920 3584 2246 3911 2432 4100 
C 2432 4157 2432 4192 2394 4192 
C 2387 4192 2374 4192 2323 4163 
C 2099 4058 1837 3973 1517 3973 
C 1325 3973 1037 3999 723 4139 
C 653 4171 640 4171 634 4171 
C 602 4171 595 4164 595 4037 
L 595 2203 
C 595 2089 595 2057 659 2057 
C 691 2057 704 2070 736 2114 
C 941 2401 1222 2522 1542 2522 
C 1766 2522 2246 2382 2246 1289 
C 2246 1085 2246 715 2054 421 
C 1894 159 1645 25 1370 25 
C 947 25 518 320 403 814 
C 429 807 480 795 506 795 
C 589 795 749 840 749 1038 
C 749 1210 627 1280 506 1280 
C 358 1280 262 1190 262 1011 
C 262 454 704 -128 1382 -128 
C 2042 -128 2669 440 2669 1264 
C 2669 2030 2170 2624 1549 2624 
C 1222 2624 947 2503 730 2274 
L 730 3692 
z
" transform="scale(0.015625)"/>
       </defs>
       <use xlink:href="#CMSY10-0" transform="scale(0.996264)"/>
       <use xlink:href="#CMR17-32" transform="translate(77.487468 0) scale(0.996264)"/>
       <use xlink:href="#CMMI12-3a" transform="translate(123.177945 0) scale(0.996264)"/>
       <use xlink:href="#CMR17-35" transform="translate(150.275122 0) scale(0.996264)"/>
      </g>
     </g>
    </g>
    <g id="ytick_2">
     <g id="line2d_7">
      <g>
       <use xlink:href="#mc044248bce" x="80.796303" y="499.910347" style="stroke: #000000; stroke-width: 0.8"/>
      </g>
     </g>
     <g id="text_8">
      <!-- $\mathdefault{−2.0}$ -->
      <g transform="translate(30.683881 507.520693) scale(0.22 -0.22)">
       <use xlink:href="#CMSY10-0" transform="scale(0.996264)"/>
       <use xlink:href="#CMR17-32" transform="translate(77.487468 0) scale(0.996264)"/>
       <use xlink:href="#CMMI12-3a" transform="translate(123.177945 0) scale(0.996264)"/>
       <use xlink:href="#CMR17-30" transform="translate(150.275122 0) scale(0.996264)"/>
      </g>
     </g>
    </g>
    <g id="ytick_3">
     <g id="line2d_8">
      <g>
       <use xlink:href="#mc044248bce" x="80.796303" y="430.610347" style="stroke: #000000; stroke-width: 0.8"/>
      </g>
     </g>
     <g id="text_9">
      <!-- $\mathdefault{−1.5}$ -->
      <g transform="translate(30.683881 438.220693) scale(0.22 -0.22)">
       <defs>
        <path id="CMR17-31" d="M 1702 4058 
C 1702 4192 1696 4192 1606 4192 
C 1357 3916 979 3827 621 3827 
C 602 3827 570 3827 563 3808 
C 557 3795 557 3782 557 3648 
C 755 3648 1088 3686 1344 3839 
L 1344 461 
C 1344 236 1331 160 781 160 
L 589 160 
L 589 0 
C 896 0 1216 0 1523 0 
C 1830 0 2150 0 2458 0 
L 2458 160 
L 2266 160 
C 1715 160 1702 230 1702 458 
L 1702 4058 
z
" transform="scale(0.015625)"/>
       </defs>
       <use xlink:href="#CMSY10-0" transform="scale(0.996264)"/>
       <use xlink:href="#CMR17-31" transform="translate(77.487468 0) scale(0.996264)"/>
       <use xlink:href="#CMMI12-3a" transform="translate(123.177945 0) scale(0.996264)"/>
       <use xlink:href="#CMR17-35" transform="translate(150.275122 0) scale(0.996264)"/>
      </g>
     </g>
    </g>
    <g id="ytick_4">
     <g id="line2d_9">
      <g>
       <use xlink:href="#mc044248bce" x="80.796303" y="361.310347" style="stroke: #000000; stroke-width: 0.8"/>
      </g>
     </g>
     <g id="text_10">
      <!-- $\mathdefault{−1.0}$ -->
      <g transform="translate(30.683881 368.920693) scale(0.22 -0.22)">
       <use xlink:href="#CMSY10-0" transform="scale(0.996264)"/>
       <use xlink:href="#CMR17-31" transform="translate(77.487468 0) scale(0.996264)"/>
       <use xlink:href="#CMMI12-3a" transform="translate(123.177945 0) scale(0.996264)"/>
       <use xlink:href="#CMR17-30" transform="translate(150.275122 0) scale(0.996264)"/>
      </g>
     </g>
    </g>
    <g id="ytick_5">
     <g id="line2d_10">
      <g>
       <use xlink:href="#mc044248bce" x="80.796303" y="292.010347" style="stroke: #000000; stroke-width: 0.8"/>
      </g>
     </g>
     <g id="text_11">
      <!-- $\mathdefault{−0.5}$ -->
      <g transform="translate(30.683881 299.620693) scale(0.22 -0.22)">
       <use xlink:href="#CMSY10-0" transform="scale(0.996264)"/>
       <use xlink:href="#CMR17-30" transform="translate(77.487468 0) scale(0.996264)"/>
       <use xlink:href="#CMMI12-3a" transform="translate(123.177945 0) scale(0.996264)"/>
       <use xlink:href="#CMR17-35" transform="translate(150.275122 0) scale(0.996264)"/>
      </g>
     </g>
    </g>
    <g id="ytick_6">
     <g id="line2d_11">
      <g>
       <use xlink:href="#mc044248bce" x="80.796303" y="222.710347" style="stroke: #000000; stroke-width: 0.8"/>
      </g>
     </g>
     <g id="text_12">
      <!-- $\mathdefault{0.0}$ -->
      <g transform="translate(47.731114 230.320693) scale(0.22 -0.22)">
       <use xlink:href="#CMR17-30" transform="scale(0.996264)"/>
       <use xlink:href="#CMMI12-3a" transform="translate(45.690477 0) scale(0.996264)"/>
       <use xlink:href="#CMR17-30" transform="translate(72.787654 0) scale(0.996264)"/>
      </g>
     </g>
    </g>
    <g id="ytick_7">
     <g id="line2d_12">
      <g>
       <use xlink:href="#mc044248bce" x="80.796303" y="153.410347" style="stroke: #000000; stroke-width: 0.8"/>
      </g>
     </g>
     <g id="text_13">
      <!-- $\mathdefault{0.5}$ -->
      <g transform="translate(47.731114 161.020693) scale(0.22 -0.22)">
       <use xlink:href="#CMR17-30" transform="scale(0.996264)"/>
       <use xlink:href="#CMMI12-3a" transform="translate(45.690477 0) scale(0.996264)"/>
       <use xlink:href="#CMR17-35" transform="translate(72.787654 0) scale(0.996264)"/>
      </g>
     </g>
    </g>
    <g id="ytick_8">
     <g id="line2d_13">
      <g>
       <use xlink:href="#mc044248bce" x="80.796303" y="84.110347" style="stroke: #000000; stroke-width: 0.8"/>
      </g>
     </g>
     <g id="text_14">
      <!-- $\mathdefault{1.0}$ -->
      <g transform="translate(47.731114 91.720693) scale(0.22 -0.22)">
       <use xlink:href="#CMR17-31" transform="scale(0.996264)"/>
       <use xlink:href="#CMMI12-3a" transform="translate(45.690477 0) scale(0.996264)"/>
       <use xlink:href="#CMR17-30" transform="translate(72.787654 0) scale(0.996264)"/>
      </g>
     </g>
    </g>
    <g id="ytick_9">
     <g id="line2d_14">
      <g>
       <use xlink:href="#mc044248bce" x="80.796303" y="14.810347" style="stroke: #000000; stroke-width: 0.8"/>
      </g>
     </g>
     <g id="text_15">
      <!-- $\mathdefault{1.5}$ -->
      <g transform="translate(47.731114 22.420693) scale(0.22 -0.22)">
       <use xlink:href="#CMR17-31" transform="scale(0.996264)"/>
       <use xlink:href="#CMMI12-3a" transform="translate(45.690477 0) scale(0.996264)"/>
       <use xlink:href="#CMR17-35" transform="translate(72.787654 0) scale(0.996264)"/>
      </g>
     </g>
    </g>
    <g id="text_16">
     <!-- y -->
     <g transform="translate(22.420693 297.322564) rotate(-90) scale(0.22 -0.22)">
      <defs>
       <path id="CMR17-79" d="M 2496 2197 
C 2656 2586 2944 2586 3034 2586 
L 3034 2752 
C 2912 2752 2752 2752 2630 2752 
C 2496 2752 2285 2752 2157 2758 
L 2157 2592 
C 2400 2573 2406 2394 2406 2343 
C 2406 2280 2394 2248 2362 2171 
L 1664 449 
L 902 2306 
C 870 2382 870 2426 870 2433 
C 870 2573 1018 2586 1171 2586 
L 1171 2758 
C 1018 2752 742 2752 582 2752 
C 410 2752 205 2752 64 2758 
L 64 2586 
C 410 2586 448 2554 531 2350 
L 1485 15 
C 1197 -738 1030 -1178 627 -1178 
C 557 -1178 397 -1159 282 -1044 
C 429 -1031 493 -942 493 -833 
C 493 -725 416 -629 288 -629 
C 147 -629 77 -725 77 -840 
C 77 -1095 339 -1280 627 -1280 
C 998 -1280 1229 -922 1357 -604 
L 2496 2197 
z
" transform="scale(0.015625)"/>
      </defs>
      <use xlink:href="#CMR17-79" transform="scale(0.996264)"/>
     </g>
    </g>
   </g>
   <g id="line2d_15">
    <path d="M 80.796303 220.708728 
L 88.161903 219.942952 
L 94.857903 219.034048 
L 100.884303 218.003791 
L 106.241103 216.887692 
L 111.597903 215.552878 
L 116.954703 213.968195 
L 121.641903 212.350822 
L 126.329103 210.494227 
L 131.016303 208.375314 
L 135.033903 206.332881 
L 139.051503 204.066683 
L 143.069103 201.563171 
L 147.086703 198.80968 
L 151.104303 195.794738 
L 155.121903 192.508401 
L 159.139503 188.942592 
L 163.157103 185.091455 
L 167.174703 180.951708 
L 171.192303 176.522978 
L 175.879503 170.994908 
L 180.566703 165.088237 
L 185.253903 158.820762 
L 190.610703 151.249025 
L 195.967503 143.28986 
L 201.993903 133.952987 
L 210.029103 121.063314 
L 228.108303 91.872813 
L 234.134703 82.673392 
L 238.821903 75.897834 
L 242.839503 70.424953 
L 246.857103 65.315696 
L 250.205103 61.371571 
L 253.553103 57.741549 
L 256.901103 54.451028 
L 260.249103 51.523377 
L 262.927503 49.456758 
L 265.605903 47.645519 
L 268.284303 46.09815 
L 270.962703 44.821953 
L 273.641103 43.822984 
L 276.319503 43.106001 
L 278.997903 42.674433 
L 281.676303 42.530347 
L 284.354703 42.674433 
L 287.033103 43.106001 
L 289.711503 43.822984 
L 292.389903 44.821953 
L 295.068303 46.09815 
L 297.746703 47.645519 
L 300.425103 49.456758 
L 303.103503 51.523377 
L 305.781903 53.83576 
L 309.129903 57.055506 
L 312.477903 60.619599 
L 315.825903 64.503023 
L 319.843503 69.54679 
L 323.861103 74.962608 
L 328.548303 81.682643 
L 333.905103 89.789163 
L 340.601103 100.376182 
L 353.323503 121.063314 
L 362.028303 135.007325 
L 368.724303 145.312702 
L 374.081103 153.180483 
L 379.437903 160.646952 
L 384.125103 166.81359 
L 388.812303 172.613586 
L 393.499503 178.031223 
L 397.517103 182.363778 
L 401.534703 186.40713 
L 405.552303 190.162658 
L 409.569903 193.634543 
L 413.587503 196.829418 
L 417.605103 199.756022 
L 421.622703 202.424847 
L 425.640303 204.847797 
L 429.657903 207.037866 
L 434.345103 209.317023 
L 439.032303 211.320682 
L 443.719503 213.071935 
L 448.406703 214.593787 
L 453.763503 216.080999 
L 459.120303 217.33025 
L 465.146703 218.488991 
L 471.173103 219.424888 
L 477.869103 220.247036 
L 485.234703 220.93649 
L 493.939503 221.525627 
L 503.983503 221.982193 
L 516.705903 222.32978 
L 534.115503 222.562635 
L 562.238703 222.682585 
L 643.260303 222.710263 
L 749.726703 222.710347 
L 749.726703 222.710347 
" clip-path="url(#p75d012edc8)" style="fill: none; stroke: #ff0000; stroke-width: 0.5; stroke-linecap: square"/>
   </g>
   <g id="line2d_16">
    <path d="M 80.796303 222.710967 
L 159.809103 222.82313 
L 181.236303 223.07417 
L 195.297903 223.452547 
L 206.011503 223.950784 
L 214.716303 224.557995 
L 222.751503 225.339636 
L 229.447503 226.19969 
L 235.473903 227.173536 
L 241.500303 228.373119 
L 246.857103 229.660152 
L 252.213903 231.185287 
L 256.901103 232.739174 
L 261.588303 234.519957 
L 266.275503 236.548972 
L 270.962703 238.847328 
L 274.980303 241.047214 
L 278.997903 243.472124 
L 283.015503 246.133234 
L 287.033103 249.04047 
L 291.050703 252.202188 
L 295.068303 255.624858 
L 299.085903 259.312741 
L 303.103503 263.26756 
L 307.790703 268.217232 
L 312.477903 273.521386 
L 317.165103 279.166464 
L 322.521903 286.008974 
L 327.878703 293.22804 
L 333.905103 301.731347 
L 341.270703 312.535375 
L 364.706703 347.310974 
L 370.063503 354.698694 
L 374.750703 360.794547 
L 378.768303 365.684468 
L 382.785903 370.215578 
L 386.133903 373.685254 
L 389.481903 376.850711 
L 392.829903 379.689599 
L 395.508303 381.711848 
L 398.186703 383.502675 
L 400.865103 385.053714 
L 403.543503 386.35767 
L 406.221903 387.408371 
L 408.900303 388.200822 
L 411.578703 388.73124 
L 414.257103 388.997086 
L 416.935503 388.997086 
L 419.613903 388.73124 
L 422.292303 388.200822 
L 424.970703 387.408371 
L 427.649103 386.35767 
L 430.327503 385.053714 
L 433.005903 383.502675 
L 435.684303 381.711848 
L 438.362703 379.689599 
L 441.710703 376.850711 
L 445.058703 373.685254 
L 448.406703 370.215578 
L 452.424303 365.684468 
L 456.441903 360.794547 
L 461.129103 354.698694 
L 466.485903 347.310974 
L 472.512303 338.602917 
L 481.886703 324.597274 
L 494.609103 305.616861 
L 501.305103 296.021565 
L 507.331503 287.780349 
L 512.688303 280.839287 
L 517.375503 275.100237 
L 522.062703 269.697003 
L 526.749903 264.645047 
L 531.437103 259.953333 
L 535.454703 256.221008 
L 539.472303 252.754367 
L 543.489903 249.54955 
L 547.507503 246.600435 
L 551.525103 243.898954 
L 555.542703 241.435424 
L 559.560303 239.198855 
L 564.247503 236.860333 
L 568.934703 234.794122 
L 573.621903 232.979182 
L 578.309103 231.394185 
L 583.665903 229.837156 
L 589.022703 228.521992 
L 595.049103 227.294996 
L 601.075503 226.297876 
L 607.771503 225.416325 
L 615.137103 224.671855 
L 623.841903 224.030653 
L 633.885903 223.52917 
L 645.938703 223.158381 
L 662.009103 222.901002 
L 686.784303 222.75597 
L 743.700303 222.711364 
L 749.726703 222.710998 
L 749.726703 222.710998 
" clip-path="url(#p75d012edc8)" style="fill: none; stroke: #0000ff; stroke-width: 0.5; stroke-linecap: square"/>
   </g>
   <g id="line2d_17">
    <path d="M 80.796303 222.710347 
L 302.433903 222.603155 
L 325.200303 222.355593 
L 339.931503 221.986759 
L 351.314703 221.496108 
L 361.358703 220.838609 
L 370.063503 220.035968 
L 377.429103 219.140698 
L 384.125103 218.117651 
L 390.821103 216.860198 
L 396.847503 215.498557 
L 402.873903 213.891711 
L 408.230703 212.236649 
L 413.587503 210.350326 
L 418.944303 208.217327 
L 424.301103 205.824646 
L 429.657903 203.162461 
L 435.014703 200.224926 
L 440.371503 197.01096 
L 445.728303 193.524989 
L 451.085103 189.777612 
L 457.111503 185.271189 
L 463.137903 180.491482 
L 470.503503 174.348213 
L 480.547503 165.629585 
L 495.278703 152.824221 
L 501.974703 147.305833 
L 507.331503 143.153872 
L 512.018703 139.770373 
L 516.705903 136.665628 
L 520.723503 134.257718 
L 524.741103 132.109175 
L 528.758703 130.24193 
L 532.106703 128.914822 
L 535.454703 127.806224 
L 538.802703 126.924289 
L 542.150703 126.275546 
L 545.498703 125.864826 
L 548.846703 125.695198 
L 552.194703 125.767932 
L 555.542703 126.082483 
L 558.890703 126.636499 
L 562.238703 127.425848 
L 565.586703 128.44467 
L 568.934703 129.685452 
L 572.282703 131.139116 
L 576.300303 133.149599 
L 580.317903 135.430713 
L 584.335503 137.959381 
L 589.022703 141.188818 
L 593.709903 144.678492 
L 599.066703 148.928174 
L 605.762703 154.532673 
L 615.806703 163.276306 
L 629.868303 175.485643 
L 637.233903 181.575026 
L 643.260303 186.297664 
L 649.286703 190.738135 
L 654.643503 194.421513 
L 660.000303 197.840225 
L 665.357103 200.985271 
L 670.713903 203.853668 
L 676.070703 206.447761 
L 681.427503 208.774462 
L 686.784303 210.844466 
L 692.141103 212.671451 
L 697.497903 214.271319 
L 703.524303 215.821407 
L 709.550703 217.132141 
L 716.246703 218.339892 
L 722.942703 219.320221 
L 730.308303 220.176048 
L 738.343503 220.890564 
L 747.717903 221.496108 
L 749.726703 221.599784 
L 749.726703 221.599784 
" clip-path="url(#p75d012edc8)" style="fill: none; stroke: #008000; stroke-width: 0.5; stroke-linecap: square"/>
   </g>
   <g id="line2d_18">
    <path d="M 80.796303 220.709348 
L 88.161903 219.94402 
L 94.857903 219.035781 
L 100.884303 218.006447 
L 106.910703 216.737458 
L 112.267503 215.374937 
L 116.954703 213.976166 
L 121.641903 212.361688 
L 126.329103 210.508966 
L 131.016303 208.395208 
L 135.033903 206.358507 
L 139.051503 204.099574 
L 143.069103 201.605235 
L 147.086703 198.863282 
L 151.104303 195.862798 
L 155.121903 192.594508 
L 159.139503 189.051139 
L 163.157103 185.227799 
L 167.174703 181.12235 
L 171.192303 176.735781 
L 175.879503 171.268985 
L 180.566703 165.439504 
L 185.253903 159.26876 
L 190.610703 151.837052 
L 196.637103 143.063197 
L 204.002703 131.897086 
L 225.429903 99.041834 
L 230.786703 91.413275 
L 235.473903 85.160652 
L 239.491503 80.195967 
L 242.839503 76.386084 
L 246.187503 72.912977 
L 249.535503 69.812583 
L 252.213903 67.624055 
L 254.892303 65.713511 
L 257.570703 64.097368 
L 260.249103 62.791197 
L 262.257903 62.02382 
L 264.266703 61.444824 
L 266.275503 61.059626 
L 268.284303 60.873259 
L 270.293103 60.890346 
L 272.301903 61.115084 
L 274.310703 61.551221 
L 276.319503 62.202036 
L 278.328303 63.070328 
L 280.337103 64.158391 
L 282.345903 65.46801 
L 284.354703 67.000441 
L 286.363503 68.756405 
L 289.041903 71.445633 
L 291.720303 74.531392 
L 294.398703 78.010806 
L 297.077103 81.879226 
L 299.755503 86.130233 
L 302.433903 90.755645 
L 305.781903 97.048641 
L 309.129903 103.887904 
L 312.477903 111.246281 
L 315.825903 119.092749 
L 319.843503 129.103697 
L 323.861103 139.700913 
L 328.548303 152.707706 
L 333.905103 168.266422 
L 340.601103 188.458667 
L 362.697903 255.81534 
L 368.054703 271.102101 
L 372.741903 283.793645 
L 376.759503 294.059369 
L 380.777103 303.678372 
L 384.125103 311.148995 
L 387.473103 318.083884 
L 390.821103 324.449058 
L 393.499503 329.110499 
L 396.177903 333.374087 
L 398.856303 337.227697 
L 401.534703 340.660883 
L 404.213103 343.664915 
L 406.221903 345.63204 
L 408.230703 347.351505 
L 410.239503 348.821577 
L 412.248303 350.041087 
L 414.257103 351.009429 
L 416.265903 351.726557 
L 418.274703 352.192986 
L 420.283503 352.409785 
L 422.292303 352.378571 
L 424.301103 352.101499 
L 426.309903 351.581259 
L 428.318703 350.821058 
L 430.327503 349.824614 
L 432.336303 348.596139 
L 434.345103 347.140329 
L 436.353903 345.46234 
L 439.032303 342.889167 
L 441.710703 339.945503 
L 444.389103 336.6471 
L 447.067503 333.010902 
L 450.415503 328.018219 
L 453.763503 322.563431 
L 457.111503 316.686122 
L 461.129103 309.134058 
L 465.146703 301.107698 
L 469.833903 291.246625 
L 475.860303 277.973362 
L 483.895503 259.664194 
L 496.617903 230.641215 
L 502.644303 217.438344 
L 508.001103 206.240934 
L 512.688303 196.968782 
L 516.705903 189.474702 
L 520.723503 182.445119 
L 524.741103 175.917309 
L 528.089103 170.883417 
L 531.437103 166.234421 
L 534.785103 161.982007 
L 538.133103 158.134844 
L 540.811503 155.352815 
L 543.489903 152.835401 
L 546.168303 150.582989 
L 548.846703 148.594818 
L 551.525103 146.869019 
L 554.203503 145.402654 
L 556.881903 144.191763 
L 559.560303 143.231412 
L 562.238703 142.515747 
L 564.917103 142.038052 
L 567.595503 141.790811 
L 570.273903 141.765772 
L 572.952303 141.95401 
L 575.630703 142.346001 
L 578.309103 142.931688 
L 581.657103 143.920123 
L 585.005103 145.173373 
L 588.353103 146.669333 
L 591.701103 148.385391 
L 595.718703 150.702919 
L 599.736303 153.264665 
L 604.423503 156.509481 
L 609.780303 160.48078 
L 617.145903 166.245492 
L 639.912303 184.314271 
L 646.608303 189.234596 
L 652.634703 193.386575 
L 657.991503 196.827242 
L 663.348303 200.015338 
L 668.705103 202.941686 
L 674.061903 205.603491 
L 679.418703 208.003475 
L 684.775503 210.148976 
L 690.132303 212.051053 
L 695.489103 213.723624 
L 700.845903 215.18266 
L 706.872303 216.590391 
L 712.898703 217.775345 
L 719.594703 218.861887 
L 726.960303 219.816726 
L 734.995503 220.619528 
L 743.700303 221.263749 
L 749.726703 221.600435 
L 749.726703 221.600435 
" clip-path="url(#p75d012edc8)" style="fill: none; stroke: #000000; stroke-width: 3; stroke-linecap: square"/>
   </g>
   <g id="line2d_19">
    <path d="M 281.676303 569.210347 
L 281.676303 14.810347 
" clip-path="url(#p75d012edc8)" style="fill: none; stroke-dasharray: 3.7,1.6; stroke-dashoffset: 0; stroke: #000000"/>
   </g>
   <g id="line2d_20">
    <path d="M 549.516303 569.210347 
L 549.516303 14.810347 
" clip-path="url(#p75d012edc8)" style="fill: none; stroke-dasharray: 3.7,1.6; stroke-dashoffset: 0; stroke: #000000"/>
   </g>
   <g id="patch_3">
    <path d="M 80.796303 569.210347 
L 80.796303 14.810347 
" style="fill: none; stroke: #000000; stroke-width: 0.8; stroke-linejoin: miter; stroke-linecap: square"/>
   </g>
   <g id="patch_4">
    <path d="M 750.396303 569.210347 
L 750.396303 14.810347 
" style="fill: none; stroke: #000000; stroke-width: 0.8; stroke-linejoin: miter; stroke-linecap: square"/>
   </g>
   <g id="patch_5">
    <path d="M 80.796303 569.210347 
L 750.396303 569.210347 
" style="fill: none; stroke: #000000; stroke-width: 0.8; stroke-linejoin: miter; stroke-linecap: square"/>
   </g>
   <g id="patch_6">
    <path d="M 80.796303 14.810347 
L 750.396303 14.810347 
" style="fill: none; stroke: #000000; stroke-width: 0.8; stroke-linejoin: miter; stroke-linecap: square"/>
   </g>
   <g id="legend_1">
    <g id="patch_7">
     <path d="M 96.196303 558.210347 
L 474.917713 558.210347 
Q 479.317713 558.210347 479.317713 553.810347 
L 479.317713 431.14104 
Q 479.317713 426.74104 474.917713 426.74104 
L 96.196303 426.74104 
Q 91.796303 426.74104 91.796303 431.14104 
L 91.796303 553.810347 
Q 91.796303 558.210347 96.196303 558.210347 
z
" style="fill: #ffffff; opacity: 0.8; stroke: #cccccc; stroke-linejoin: miter"/>
    </g>
    <g id="line2d_21">
     <path d="M 100.596303 443.24104 
L 122.596303 443.24104 
L 144.596303 443.24104 
" style="fill: none; stroke: #ff0000; stroke-width: 0.5; stroke-linecap: square"/>
    </g>
    <g id="text_17">
     <!-- RBF at $g_0=-2$ with $w_0=1.3$ -->
     <g transform="translate(162.196303 450.94104) scale(0.22 -0.22)">
      <defs>
       <path id="CMR17-52" d="M 2509 2146 
C 3117 2268 3629 2676 3629 3186 
C 3629 3785 2950 4326 2054 4326 
L 333 4326 
L 333 4160 
C 774 4160 845 4160 845 3873 
L 845 415 
C 845 128 774 128 333 128 
L 333 -26 
C 518 -26 851 -26 1050 -26 
C 1248 -26 1581 -26 1766 -26 
L 1766 128 
C 1325 128 1254 128 1254 417 
L 1254 2112 
L 2003 2112 
C 2368 2112 2573 1964 2662 1881 
C 2918 1632 2918 1459 2918 1024 
C 2918 595 2918 377 3110 160 
C 3354 -102 3680 -128 3821 -128 
C 4294 -128 4365 396 4365 503 
C 4365 540 4365 585 4307 585 
C 4256 585 4250 547 4250 522 
C 4218 112 4032 -26 3834 -26 
C 3482 -26 3443 375 3405 764 
C 3386 898 3373 993 3360 1133 
C 3322 1452 3270 1917 2509 2146 
z
M 1984 2214 
L 1254 2214 
L 1254 3913 
C 1254 4129 1267 4160 1523 4160 
L 1990 4160 
C 2522 4160 3142 3977 3142 3190 
C 3142 2372 2464 2214 1984 2214 
z
" transform="scale(0.015625)"/>
       <path id="CMR17-42" d="M 333 4352 
L 333 4186 
C 774 4186 845 4186 845 3900 
L 845 452 
C 845 166 774 166 333 166 
L 333 0 
L 2534 0 
C 3354 0 3885 583 3885 1164 
C 3885 1741 3360 2233 2675 2233 
C 3290 2356 3718 2771 3718 3264 
C 3718 3802 3194 4352 2368 4352 
L 333 4352 
z
M 1248 2304 
L 1248 3937 
C 1248 4155 1261 4186 1517 4186 
L 2336 4186 
C 2970 4186 3251 3674 3251 3277 
C 3251 2791 2861 2304 2170 2304 
L 1248 2304 
z
M 1517 166 
C 1261 166 1248 197 1248 413 
L 1248 2202 
L 2432 2202 
C 3091 2202 3411 1625 3411 1162 
C 3411 699 3046 166 2349 166 
L 1517 166 
z
" transform="scale(0.015625)"/>
       <path id="CMR17-46" d="M 3482 4325 
L 326 4325 
L 326 4160 
C 768 4160 838 4160 838 3874 
L 838 446 
C 838 160 768 160 326 160 
L 326 0 
C 512 0 870 0 1069 0 
C 1331 0 1638 0 1901 0 
L 1901 160 
L 1760 160 
C 1274 160 1261 223 1261 452 
L 1261 2075 
L 1837 2075 
C 2432 2075 2490 1865 2490 1332 
L 2605 1332 
L 2605 2987 
L 2490 2987 
C 2490 2450 2432 2240 1837 2240 
L 1261 2240 
L 1261 3911 
C 1261 4128 1274 4160 1530 4160 
L 2355 4160 
C 3322 4160 3430 3765 3520 2916 
L 3635 2916 
L 3482 4325 
z
" transform="scale(0.015625)"/>
       <path id="CMR17-61" d="M 2304 1653 
C 2304 2072 2304 2294 2035 2543 
C 1798 2752 1523 2816 1306 2816 
C 800 2816 435 2407 435 1971 
C 435 1728 627 1728 666 1728 
C 749 1728 896 1778 896 1954 
C 896 2112 774 2181 666 2181 
C 640 2181 608 2174 589 2168 
C 723 2592 1069 2714 1293 2714 
C 1613 2714 1965 2429 1965 1885 
L 1965 1600 
C 1587 1600 1133 1549 774 1357 
C 371 1133 256 813 256 570 
C 256 77 832 -64 1171 -64 
C 1523 -64 1850 139 1990 511 
C 2003 233 2182 -18 2464 -18 
C 2598 -18 2938 70 2938 567 
L 2938 920 
L 2822 920 
L 2822 562 
C 2822 178 2650 128 2566 128 
C 2304 128 2304 458 2304 738 
L 2304 1653 
z
M 1965 870 
C 1965 317 1568 38 1216 38 
C 896 38 646 275 646 570 
C 646 761 730 1100 1101 1305 
C 1408 1478 1760 1504 1965 1504 
L 1965 870 
z
" transform="scale(0.015625)"/>
       <path id="CMR17-74" d="M 966 2560 
L 1862 2560 
L 1862 2725 
L 966 2725 
L 966 3904 
L 851 3904 
C 838 3245 614 2668 70 2668 
L 70 2560 
L 627 2560 
L 627 771 
C 627 650 627 -64 1370 -64 
C 1747 -64 1965 306 1965 777 
L 1965 1140 
L 1850 1140 
L 1850 783 
C 1850 344 1677 51 1408 51 
C 1222 51 966 178 966 758 
L 966 2560 
z
" transform="scale(0.015625)"/>
       <path id="CMMI12-67" d="M 2163 811 
C 2138 709 2125 683 2042 588 
C 1779 249 1510 128 1312 128 
C 1101 128 902 294 902 734 
C 902 1073 1094 1788 1235 2076 
C 1421 2433 1709 2689 1978 2689 
C 2400 2689 2483 2165 2483 2127 
L 2464 2037 
L 2163 811 
z
M 2560 2395 
C 2477 2580 2298 2816 1978 2816 
C 1280 2816 486 1941 486 990 
C 486 326 890 0 1299 0 
C 1638 0 1939 268 2054 396 
L 1914 -171 
C 1824 -516 1786 -674 1555 -894 
C 1293 -1152 1050 -1152 909 -1152 
C 717 -1152 557 -1139 397 -1089 
C 602 -1033 653 -858 653 -789 
C 653 -689 576 -588 435 -588 
C 282 -588 115 -714 115 -922 
C 115 -1180 378 -1280 922 -1280 
C 1747 -1280 2176 -753 2259 -410 
L 2970 2435 
C 2989 2511 2989 2524 2989 2536 
C 2989 2625 2918 2695 2822 2695 
C 2669 2695 2579 2567 2560 2395 
z
" transform="scale(0.015625)"/>
       <path id="CMR17-3d" d="M 4115 2017 
C 4211 2017 4307 2017 4307 2125 
C 4307 2240 4198 2240 4090 2240 
L 512 2240 
C 403 2240 294 2240 294 2125 
C 294 2017 390 2017 486 2017 
L 4115 2017 
z
M 4090 896 
C 4198 896 4307 896 4307 1011 
C 4307 1119 4211 1119 4115 1119 
L 486 1119 
C 390 1119 294 1119 294 1011 
C 294 896 403 896 512 896 
L 4090 896 
z
" transform="scale(0.015625)"/>
       <path id="CMR17-77" d="M 3725 2183 
C 3853 2560 4109 2560 4205 2560 
L 4205 2732 
C 4077 2732 3949 2732 3821 2732 
C 3699 2732 3424 2732 3315 2738 
L 3315 2560 
C 3514 2560 3622 2445 3622 2286 
C 3622 2241 3610 2184 3597 2140 
L 2995 407 
L 2342 2275 
C 2330 2319 2310 2370 2310 2395 
C 2310 2560 2528 2560 2630 2560 
L 2630 2738 
C 2483 2732 2214 2732 2061 2732 
C 1901 2732 1734 2732 1587 2738 
L 1587 2560 
C 1939 2560 1939 2547 2074 2149 
L 1485 451 
L 851 2281 
C 819 2363 819 2376 819 2395 
C 819 2560 1037 2560 1139 2560 
L 1139 2738 
C 986 2732 717 2732 557 2732 
C 416 2732 198 2732 64 2738 
L 64 2560 
C 346 2560 416 2541 486 2331 
L 1274 49 
C 1299 -33 1318 -52 1370 -52 
C 1414 -52 1440 -39 1472 56 
L 2131 1980 
L 2797 56 
C 2829 -39 2854 -52 2899 -52 
C 2950 -52 2970 -33 2995 50 
L 3725 2183 
z
" transform="scale(0.015625)"/>
       <path id="CMR17-69" d="M 992 3909 
C 992 4049 877 4170 730 4170 
C 589 4170 467 4056 467 3909 
C 467 3769 582 3648 730 3648 
C 870 3648 992 3763 992 3909 
z
M 243 2706 
L 243 2541 
C 602 2541 653 2502 653 2197 
L 653 427 
C 653 184 627 153 218 153 
L 218 -13 
C 371 0 646 0 806 0 
C 960 0 1222 0 1370 -13 
L 1370 153 
C 992 153 979 191 979 420 
L 979 2776 
L 243 2706 
z
" transform="scale(0.015625)"/>
       <path id="CMR17-68" d="M 2656 1933 
C 2656 2259 2592 2790 1837 2790 
C 1312 2790 1056 2368 979 2157 
L 973 2157 
L 973 4396 
L 211 4326 
L 211 4160 
C 589 4160 646 4122 646 3817 
L 646 426 
C 646 184 621 153 211 153 
L 211 -13 
C 365 0 646 0 813 0 
C 979 0 1267 0 1421 -13 
L 1421 153 
C 1011 153 986 178 986 428 
L 986 1658 
C 986 2247 1344 2688 1792 2688 
C 2266 2688 2317 2266 2317 1958 
L 2317 428 
C 2317 184 2291 153 1882 153 
L 1882 -13 
C 2035 0 2317 0 2483 0 
C 2650 0 2938 0 3091 -13 
L 3091 153 
C 2682 153 2656 178 2656 428 
L 2656 1933 
z
" transform="scale(0.015625)"/>
       <path id="CMMI12-77" d="M 2202 390 
C 2342 6 2739 -64 2982 -64 
C 3469 -64 3757 358 3936 798 
C 4083 1169 4320 2012 4320 2389 
C 4320 2778 4122 2816 4064 2816 
C 3910 2816 3770 2663 3770 2535 
C 3770 2459 3814 2414 3846 2389 
C 3904 2331 4070 2159 4070 1827 
C 4070 1609 3891 1009 3757 709 
C 3578 319 3341 64 3008 64 
C 2650 64 2534 332 2534 626 
C 2534 811 2592 1035 2618 1143 
L 2886 2216 
C 2918 2344 2976 2567 2976 2593 
C 2976 2689 2899 2753 2803 2753 
C 2618 2753 2573 2593 2534 2440 
C 2470 2191 2202 1111 2176 971 
C 2150 862 2150 792 2150 651 
C 2150 498 1946 255 1939 243 
C 1869 172 1766 64 1568 64 
C 1062 64 1062 543 1062 651 
C 1062 856 1107 1137 1395 1897 
C 1472 2095 1504 2178 1504 2305 
C 1504 2574 1312 2816 998 2816 
C 410 2816 173 1890 173 1839 
C 173 1814 198 1782 243 1782 
C 301 1782 307 1807 333 1896 
C 493 2454 742 2682 979 2682 
C 1043 2682 1146 2682 1146 2478 
C 1146 2446 1146 2312 1037 2031 
C 736 1233 672 971 672 728 
C 672 57 1222 -64 1549 -64 
C 1658 -64 1946 -64 2202 390 
z
" transform="scale(0.015625)"/>
       <path id="CMR17-33" d="M 1414 2157 
C 1984 2157 2234 1662 2234 1090 
C 2234 320 1824 25 1453 25 
C 1114 25 563 194 390 693 
C 422 680 454 680 486 680 
C 640 680 755 782 755 948 
C 755 1133 614 1216 486 1216 
C 378 1216 211 1165 211 926 
C 211 335 787 -128 1466 -128 
C 2176 -128 2720 430 2720 1085 
C 2720 1707 2208 2157 1600 2227 
C 2086 2328 2554 2756 2554 3329 
C 2554 3820 2048 4179 1472 4179 
C 890 4179 378 3829 378 3329 
C 378 3110 544 3072 627 3072 
C 762 3072 877 3155 877 3321 
C 877 3486 762 3569 627 3569 
C 602 3569 570 3569 544 3557 
C 730 3959 1235 4032 1459 4032 
C 1683 4032 2106 3925 2106 3320 
C 2106 3143 2080 2828 1862 2550 
C 1670 2304 1453 2304 1242 2284 
C 1210 2284 1062 2269 1037 2269 
C 992 2263 966 2257 966 2208 
C 966 2163 973 2157 1101 2157 
L 1414 2157 
z
" transform="scale(0.015625)"/>
      </defs>
      <use xlink:href="#CMR17-52" transform="scale(0.996264)"/>
      <use xlink:href="#CMR17-42" transform="translate(67.791102 0) scale(0.996264)"/>
      <use xlink:href="#CMR17-46" transform="translate(132.979856 0) scale(0.996264)"/>
      <use xlink:href="#CMR17-61" transform="translate(223.039669 0) scale(0.996264)"/>
      <use xlink:href="#CMR17-74" transform="translate(268.730146 0) scale(0.996264)"/>
      <use xlink:href="#CMMI12-67" transform="translate(334.086881 0) scale(0.996264)"/>
      <use xlink:href="#CMR17-30" transform="translate(380.797777 -14.943915) scale(0.697382)"/>
      <use xlink:href="#CMR17-3d" transform="translate(440.9531 0) scale(0.996264)"/>
      <use xlink:href="#CMSY10-0" transform="translate(540.341897 0) scale(0.996264)"/>
      <use xlink:href="#CMR17-32" transform="translate(617.829365 0) scale(0.996264)"/>
      <use xlink:href="#CMR17-77" transform="translate(693.595808 0) scale(0.996264)"/>
      <use xlink:href="#CMR17-69" transform="translate(760.105689 0) scale(0.996264)"/>
      <use xlink:href="#CMR17-74" transform="translate(784.976747 0) scale(0.996264)"/>
      <use xlink:href="#CMR17-68" transform="translate(820.257515 0) scale(0.996264)"/>
      <use xlink:href="#CMMI12-77" transform="translate(901.228851 0) scale(0.996264)"/>
      <use xlink:href="#CMR17-30" transform="translate(970.960841 -14.943915) scale(0.697382)"/>
      <use xlink:href="#CMR17-3d" transform="translate(1031.116164 0) scale(0.996264)"/>
      <use xlink:href="#CMR17-31" transform="translate(1130.504961 0) scale(0.996264)"/>
      <use xlink:href="#CMMI12-3a" transform="translate(1176.195438 0) scale(0.996264)"/>
      <use xlink:href="#CMR17-33" transform="translate(1203.292615 0) scale(0.996264)"/>
     </g>
    </g>
    <g id="line2d_22">
     <path d="M 100.596303 473.904228 
L 122.596303 473.904228 
L 144.596303 473.904228 
" style="fill: none; stroke: #0000ff; stroke-width: 0.5; stroke-linecap: square"/>
    </g>
    <g id="text_18">
     <!-- RBF at $g_1=0$ with $w_1=-1.2$ -->
     <g transform="translate(162.196303 481.604228) scale(0.22 -0.22)">
      <use xlink:href="#CMR17-52" transform="scale(0.996264)"/>
      <use xlink:href="#CMR17-42" transform="translate(67.791102 0) scale(0.996264)"/>
      <use xlink:href="#CMR17-46" transform="translate(132.979856 0) scale(0.996264)"/>
      <use xlink:href="#CMR17-61" transform="translate(223.039669 0) scale(0.996264)"/>
      <use xlink:href="#CMR17-74" transform="translate(268.730146 0) scale(0.996264)"/>
      <use xlink:href="#CMMI12-67" transform="translate(334.086881 0) scale(0.996264)"/>
      <use xlink:href="#CMR17-31" transform="translate(380.797777 -14.943915) scale(0.697382)"/>
      <use xlink:href="#CMR17-3d" transform="translate(440.9531 0) scale(0.996264)"/>
      <use xlink:href="#CMR17-30" transform="translate(540.341897 0) scale(0.996264)"/>
      <use xlink:href="#CMR17-77" transform="translate(616.108341 0) scale(0.996264)"/>
      <use xlink:href="#CMR17-69" transform="translate(682.618221 0) scale(0.996264)"/>
      <use xlink:href="#CMR17-74" transform="translate(707.48928 0) scale(0.996264)"/>
      <use xlink:href="#CMR17-68" transform="translate(742.770048 0) scale(0.996264)"/>
      <use xlink:href="#CMMI12-77" transform="translate(823.741384 0) scale(0.996264)"/>
      <use xlink:href="#CMR17-31" transform="translate(893.473373 -14.943915) scale(0.697382)"/>
      <use xlink:href="#CMR17-3d" transform="translate(953.628696 0) scale(0.996264)"/>
      <use xlink:href="#CMSY10-0" transform="translate(1053.017493 0) scale(0.996264)"/>
      <use xlink:href="#CMR17-31" transform="translate(1130.504961 0) scale(0.996264)"/>
      <use xlink:href="#CMMI12-3a" transform="translate(1176.195438 0) scale(0.996264)"/>
      <use xlink:href="#CMR17-32" transform="translate(1203.292615 0) scale(0.996264)"/>
     </g>
    </g>
    <g id="line2d_23">
     <path d="M 100.596303 504.567416 
L 122.596303 504.567416 
L 144.596303 504.567416 
" style="fill: none; stroke: #008000; stroke-width: 0.5; stroke-linecap: square"/>
    </g>
    <g id="text_19">
     <!-- RBF at $g_2=2$ with $w_2=0.7$ -->
     <g transform="translate(162.196303 512.267416) scale(0.22 -0.22)">
      <defs>
       <path id="CMR17-37" d="M 2886 3941 
L 2886 4081 
L 1382 4081 
C 634 4081 621 4165 595 4288 
L 480 4288 
L 294 3094 
L 410 3094 
C 429 3215 474 3540 550 3661 
C 589 3712 1062 3712 1171 3712 
L 2579 3712 
L 1869 2661 
C 1395 1954 1069 999 1069 165 
C 1069 89 1069 -128 1299 -128 
C 1530 -128 1530 89 1530 171 
L 1530 465 
C 1530 1508 1709 2196 2003 2636 
L 2886 3941 
z
" transform="scale(0.015625)"/>
      </defs>
      <use xlink:href="#CMR17-52" transform="scale(0.996264)"/>
      <use xlink:href="#CMR17-42" transform="translate(67.791102 0) scale(0.996264)"/>
      <use xlink:href="#CMR17-46" transform="translate(132.979856 0) scale(0.996264)"/>
      <use xlink:href="#CMR17-61" transform="translate(223.039669 0) scale(0.996264)"/>
      <use xlink:href="#CMR17-74" transform="translate(268.730146 0) scale(0.996264)"/>
      <use xlink:href="#CMMI12-67" transform="translate(334.086881 0) scale(0.996264)"/>
      <use xlink:href="#CMR17-32" transform="translate(380.797777 -14.943915) scale(0.697382)"/>
      <use xlink:href="#CMR17-3d" transform="translate(440.9531 0) scale(0.996264)"/>
      <use xlink:href="#CMR17-32" transform="translate(540.341897 0) scale(0.996264)"/>
      <use xlink:href="#CMR17-77" transform="translate(616.108341 0) scale(0.996264)"/>
      <use xlink:href="#CMR17-69" transform="translate(682.618221 0) scale(0.996264)"/>
      <use xlink:href="#CMR17-74" transform="translate(707.48928 0) scale(0.996264)"/>
      <use xlink:href="#CMR17-68" transform="translate(742.770048 0) scale(0.996264)"/>
      <use xlink:href="#CMMI12-77" transform="translate(823.741384 0) scale(0.996264)"/>
      <use xlink:href="#CMR17-32" transform="translate(893.473373 -14.943915) scale(0.697382)"/>
      <use xlink:href="#CMR17-3d" transform="translate(953.628696 0) scale(0.996264)"/>
      <use xlink:href="#CMR17-30" transform="translate(1053.017493 0) scale(0.996264)"/>
      <use xlink:href="#CMMI12-3a" transform="translate(1098.70797 0) scale(0.996264)"/>
      <use xlink:href="#CMR17-37" transform="translate(1125.805147 0) scale(0.996264)"/>
     </g>
    </g>
    <g id="line2d_24">
     <path d="M 100.596303 536.249228 
L 122.596303 536.249228 
L 144.596303 536.249228 
" style="fill: none; stroke: #000000; stroke-width: 3; stroke-linecap: square"/>
    </g>
    <g id="text_20">
     <!-- $\Phi(x)$ result of weighted summation -->
     <g transform="translate(162.196303 543.949228) scale(0.22 -0.22)">
      <defs>
       <path id="CMR17-8" d="M 2330 818 
C 3366 907 3974 1553 3974 2172 
C 3974 2818 3341 3444 2330 3534 
L 2330 3897 
C 2330 4128 2342 4192 2829 4192 
L 2970 4192 
L 2970 4352 
C 2707 4352 2400 4352 2131 4352 
C 1862 4352 1549 4352 1286 4352 
L 1286 4192 
L 1427 4192 
C 1914 4192 1926 4128 1926 3897 
L 1926 3534 
C 922 3444 294 2811 294 2179 
C 294 1521 947 907 1926 818 
L 1926 454 
C 1926 224 1914 160 1427 160 
L 1286 160 
L 1286 0 
C 1549 0 1862 0 2131 0 
C 2400 0 2707 0 2970 0 
L 2970 160 
L 2829 160 
C 2342 160 2330 224 2330 454 
L 2330 818 
z
M 1926 927 
C 1350 991 768 1323 768 2173 
C 768 3048 1370 3367 1926 3425 
L 1926 927 
z
M 2330 3425 
C 2835 3380 3501 3093 3501 2179 
C 3501 1240 2810 972 2330 927 
L 2330 3425 
z
" transform="scale(0.015625)"/>
       <path id="CMR17-28" d="M 1958 -1561 
C 1958 -1555 1958 -1542 1939 -1523 
C 1645 -1224 858 -407 858 1581 
C 858 3569 1632 4379 1946 4697 
C 1946 4704 1958 4717 1958 4736 
C 1958 4755 1939 4768 1914 4768 
C 1843 4768 1299 4296 986 3594 
C 666 2887 576 2199 576 1588 
C 576 1128 621 351 1005 -471 
C 1312 -1135 1837 -1600 1914 -1600 
C 1946 -1600 1958 -1587 1958 -1561 
z
" transform="scale(0.015625)"/>
       <path id="CMMI12-78" d="M 3034 2606 
C 2829 2567 2752 2414 2752 2293 
C 2752 2139 2874 2088 2963 2088 
C 3155 2088 3290 2254 3290 2427 
C 3290 2695 2982 2816 2714 2816 
C 2323 2816 2106 2433 2048 2312 
C 1901 2816 1504 2816 1389 2816 
C 736 2816 390 1980 390 1839 
C 390 1814 416 1782 461 1782 
C 512 1782 525 1820 538 1846 
C 755 2555 1184 2689 1370 2689 
C 1658 2689 1715 2420 1715 2267 
C 1715 2127 1677 1980 1600 1673 
L 1382 798 
C 1286 415 1101 64 762 64 
C 730 64 570 64 435 147 
C 666 192 717 383 717 460 
C 717 588 621 664 499 664 
C 346 664 179 530 179 326 
C 179 57 480 -64 755 -64 
C 1062 -64 1280 179 1414 441 
C 1517 64 1837 -64 2074 -64 
C 2726 -64 3072 773 3072 913 
C 3072 945 3046 971 3008 971 
C 2950 971 2944 939 2925 888 
C 2752 326 2381 64 2093 64 
C 1869 64 1747 230 1747 492 
C 1747 632 1773 734 1875 1156 
L 2099 2024 
C 2195 2408 2413 2689 2707 2689 
C 2720 2689 2899 2689 3034 2606 
z
" transform="scale(0.015625)"/>
       <path id="CMR17-29" d="M 1683 1581 
C 1683 2040 1638 2817 1254 3639 
C 947 4303 422 4768 346 4768 
C 326 4768 301 4761 301 4729 
C 301 4717 307 4710 314 4697 
C 621 4378 1402 3568 1402 1584 
C 1402 -407 627 -1217 314 -1537 
C 307 -1549 301 -1556 301 -1568 
C 301 -1600 326 -1600 346 -1600 
C 416 -1600 960 -1128 1274 -426 
C 1594 281 1683 969 1683 1581 
z
" transform="scale(0.015625)"/>
       <path id="CMR17-72" d="M 960 1497 
C 960 2112 1222 2688 1702 2688 
C 1747 2688 1792 2682 1837 2662 
C 1837 2662 1696 2617 1696 2452 
C 1696 2298 1818 2234 1914 2234 
C 1990 2234 2131 2279 2131 2458 
C 2131 2663 1926 2790 1709 2790 
C 1222 2790 1011 2317 947 2093 
L 941 2093 
L 941 2790 
L 198 2720 
L 198 2554 
C 576 2554 634 2515 634 2208 
L 634 428 
C 634 184 608 153 198 153 
L 198 -13 
C 352 0 646 0 813 0 
C 998 0 1325 0 1498 -13 
L 1498 153 
C 1037 153 960 153 960 440 
L 960 1497 
z
" transform="scale(0.015625)"/>
       <path id="CMR17-65" d="M 2438 1472 
C 2464 1498 2464 1511 2464 1576 
C 2464 2238 2118 2816 1389 2816 
C 710 2816 173 2169 173 1383 
C 173 551 781 -64 1459 -64 
C 2176 -64 2458 607 2458 740 
C 2458 784 2419 784 2406 784 
C 2362 784 2355 771 2330 696 
C 2189 265 1837 51 1504 51 
C 1229 51 954 203 781 480 
C 582 803 582 1176 582 1472 
L 2438 1472 
z
M 589 1568 
C 634 2505 1126 2714 1382 2714 
C 1818 2714 2112 2297 2118 1568 
L 589 1568 
z
" transform="scale(0.015625)"/>
       <path id="CMR17-73" d="M 1978 2697 
C 1978 2813 1971 2819 1933 2819 
C 1907 2819 1901 2813 1824 2717 
C 1805 2691 1747 2626 1728 2601 
C 1523 2819 1235 2819 1126 2819 
C 416 2819 160 2447 160 2076 
C 160 1498 813 1365 998 1325 
C 1402 1243 1542 1217 1677 1101 
C 1760 1025 1901 884 1901 654 
C 1901 384 1747 38 1158 38 
C 602 38 403 460 288 1021 
C 269 1110 269 1117 218 1117 
C 166 1117 160 1110 160 983 
L 160 63 
C 160 -51 166 -58 205 -58 
C 237 -58 243 -51 275 0 
C 314 57 410 211 448 276 
C 576 103 800 -64 1158 -64 
C 1792 -64 2131 283 2131 784 
C 2131 1112 1958 1285 1875 1362 
C 1683 1561 1459 1606 1190 1657 
C 838 1735 390 1825 390 2217 
C 390 2383 480 2737 1126 2737 
C 1811 2737 1850 2094 1862 1888 
C 1869 1856 1901 1849 1920 1849 
C 1978 1849 1978 1869 1978 1978 
L 1978 2697 
z
" transform="scale(0.015625)"/>
       <path id="CMR17-75" d="M 1882 2693 
L 1882 2528 
C 2259 2528 2317 2489 2317 2186 
L 2317 1032 
C 2317 500 2029 38 1555 38 
C 1030 38 986 348 986 678 
L 986 2763 
L 211 2693 
L 211 2528 
C 467 2528 640 2528 646 2274 
L 646 1058 
C 646 633 646 361 813 183 
C 896 101 1056 -64 1517 -64 
C 2061 -64 2272 377 2323 506 
L 2330 506 
L 2330 -63 
L 3091 -63 
L 3091 128 
C 2714 128 2656 166 2656 473 
L 2656 2763 
L 1882 2693 
z
" transform="scale(0.015625)"/>
       <path id="CMR17-6c" d="M 979 4396 
L 218 4326 
L 218 4160 
C 595 4160 653 4122 653 3817 
L 653 426 
C 653 184 627 153 218 153 
L 218 -13 
C 371 0 653 0 813 0 
C 979 0 1261 0 1414 -13 
L 1414 153 
C 1005 153 979 178 979 426 
L 979 4396 
z
" transform="scale(0.015625)"/>
       <path id="CMR17-6f" d="M 2758 1356 
C 2758 2176 2163 2816 1466 2816 
C 768 2816 173 2176 173 1356 
C 173 551 768 -64 1466 -64 
C 2163 -64 2758 551 2758 1356 
z
M 1466 51 
C 1165 51 909 230 762 480 
C 602 767 582 1126 582 1408 
C 582 1677 595 2010 762 2298 
C 890 2509 1139 2714 1466 2714 
C 1754 2714 1997 2554 2150 2330 
C 2349 2029 2349 1607 2349 1408 
C 2349 1158 2336 775 2163 467 
C 1984 173 1709 51 1466 51 
z
" transform="scale(0.015625)"/>
       <path id="CMR17-66" d="M 979 2560 
L 1709 2560 
L 1709 2725 
L 966 2725 
L 966 3494 
C 966 4022 1235 4352 1510 4352 
C 1594 4352 1690 4327 1754 4282 
C 1702 4269 1568 4225 1568 4067 
C 1568 3901 1696 3850 1786 3850 
C 1875 3850 2003 3901 2003 4067 
C 2003 4308 1773 4454 1517 4454 
C 1152 4454 653 4156 653 3481 
L 653 2725 
L 141 2725 
L 141 2560 
L 653 2560 
L 653 427 
C 653 184 627 153 218 153 
L 218 -13 
C 371 0 666 0 832 0 
C 1018 0 1344 0 1517 -13 
L 1517 153 
C 1056 153 979 153 979 439 
L 979 2560 
z
" transform="scale(0.015625)"/>
       <path id="CMR17-67" d="M 710 1164 
C 832 1068 1043 960 1299 960 
C 1805 960 2240 1357 2240 1888 
C 2240 2054 2189 2310 1997 2509 
C 2176 2692 2438 2752 2586 2752 
C 2611 2752 2650 2752 2682 2734 
C 2656 2728 2598 2703 2598 2605 
C 2598 2527 2656 2471 2739 2471 
C 2835 2471 2886 2533 2886 2614 
C 2886 2731 2790 2854 2586 2854 
C 2330 2854 2106 2738 1926 2580 
C 1734 2753 1504 2816 1299 2816 
C 794 2816 358 2419 358 1888 
C 358 1522 570 1292 634 1228 
C 442 1004 442 743 442 711 
C 442 545 506 302 723 168 
C 390 85 128 -169 128 -486 
C 128 -943 736 -1280 1466 -1280 
C 2170 -1280 2803 -956 2803 -479 
C 2803 384 1856 384 1363 384 
C 1216 384 954 384 922 391 
C 723 423 589 602 589 826 
C 589 883 589 1024 710 1164 
z
M 1299 1068 
C 736 1068 736 1760 736 1889 
C 736 2016 736 2708 1299 2708 
C 1862 2708 1862 2016 1862 1889 
C 1862 1760 1862 1068 1299 1068 
z
M 1466 -1171 
C 826 -1171 384 -835 384 -486 
C 384 -289 493 -105 634 -4 
C 794 104 858 104 1293 104 
C 1818 104 2547 104 2547 -486 
C 2547 -835 2106 -1171 1466 -1171 
z
" transform="scale(0.015625)"/>
       <path id="CMR17-64" d="M 1869 4326 
L 1869 4160 
C 2246 4160 2304 4122 2304 3820 
L 2304 2345 
C 2278 2377 2016 2790 1498 2790 
C 845 2790 211 2208 211 1364 
C 211 525 806 -64 1434 -64 
C 1978 -64 2259 337 2291 380 
L 2291 -63 
L 3066 -63 
L 3066 128 
C 2688 128 2630 166 2630 473 
L 2630 4396 
L 1869 4326 
z
M 2291 755 
C 2291 563 2176 390 2029 262 
C 1811 70 1594 38 1472 38 
C 1286 38 621 134 621 1356 
C 621 2612 1363 2688 1530 2688 
C 1824 2688 2061 2522 2208 2291 
C 2291 2157 2291 2138 2291 2023 
L 2291 755 
z
" transform="scale(0.015625)"/>
       <path id="CMR17-6d" d="M 4326 1933 
C 4326 2252 4269 2790 3507 2790 
C 3072 2790 2771 2496 2656 2151 
L 2650 2151 
C 2573 2676 2195 2790 1837 2790 
C 1331 2790 1069 2400 973 2144 
L 966 2144 
L 966 2790 
L 211 2720 
L 211 2554 
C 589 2554 646 2515 646 2208 
L 646 428 
C 646 184 621 153 211 153 
L 211 -13 
C 365 0 646 0 813 0 
C 979 0 1267 0 1421 -13 
L 1421 153 
C 1011 153 986 178 986 428 
L 986 1658 
C 986 2247 1344 2688 1792 2688 
C 2266 2688 2317 2266 2317 1958 
L 2317 428 
C 2317 184 2291 153 1882 153 
L 1882 -13 
C 2035 0 2317 0 2483 0 
C 2650 0 2938 0 3091 -13 
L 3091 153 
C 2682 153 2656 178 2656 428 
L 2656 1658 
C 2656 2247 3014 2688 3462 2688 
C 3936 2688 3987 2266 3987 1958 
L 3987 428 
C 3987 184 3962 153 3552 153 
L 3552 -13 
C 3706 0 3987 0 4154 0 
C 4320 0 4608 0 4762 -13 
L 4762 153 
C 4352 153 4326 178 4326 428 
L 4326 1933 
z
" transform="scale(0.015625)"/>
       <path id="CMR17-6e" d="M 2656 1933 
C 2656 2259 2592 2790 1837 2790 
C 1331 2790 1069 2400 973 2144 
L 966 2144 
L 966 2790 
L 211 2720 
L 211 2554 
C 589 2554 646 2515 646 2208 
L 646 428 
C 646 184 621 153 211 153 
L 211 -13 
C 365 0 646 0 813 0 
C 979 0 1267 0 1421 -13 
L 1421 153 
C 1011 153 986 178 986 428 
L 986 1658 
C 986 2247 1344 2688 1792 2688 
C 2266 2688 2317 2266 2317 1958 
L 2317 428 
C 2317 184 2291 153 1882 153 
L 1882 -13 
C 2035 0 2317 0 2483 0 
C 2650 0 2938 0 3091 -13 
L 3091 153 
C 2682 153 2656 178 2656 428 
L 2656 1933 
z
" transform="scale(0.015625)"/>
      </defs>
      <use xlink:href="#CMR17-8" transform="scale(0.996264)"/>
      <use xlink:href="#CMR17-28" transform="translate(66.509881 0) scale(0.996264)"/>
      <use xlink:href="#CMMI12-78" transform="translate(101.790648 0) scale(0.996264)"/>
      <use xlink:href="#CMR17-29" transform="translate(157.224708 0) scale(0.996264)"/>
      <use xlink:href="#CMR17-72" transform="translate(222.581442 0) scale(0.996264)"/>
      <use xlink:href="#CMR17-65" transform="translate(257.86221 0) scale(0.996264)"/>
      <use xlink:href="#CMR17-73" transform="translate(298.34787 0) scale(0.996264)"/>
      <use xlink:href="#CMR17-75" transform="translate(334.149208 0) scale(0.996264)"/>
      <use xlink:href="#CMR17-6c" transform="translate(385.044578 0) scale(0.996264)"/>
      <use xlink:href="#CMR17-74" transform="translate(409.915636 0) scale(0.996264)"/>
      <use xlink:href="#CMR17-6f" transform="translate(475.27237 0) scale(0.996264)"/>
      <use xlink:href="#CMR17-66" transform="translate(520.962847 0) scale(0.996264)"/>
      <use xlink:href="#CMR17-77" transform="translate(578.512326 0) scale(0.996264)"/>
      <use xlink:href="#CMR17-65" transform="translate(642.419753 0) scale(0.996264)"/>
      <use xlink:href="#CMR17-69" transform="translate(682.905413 0) scale(0.996264)"/>
      <use xlink:href="#CMR17-67" transform="translate(707.776472 0) scale(0.996264)"/>
      <use xlink:href="#CMR17-68" transform="translate(753.466949 0) scale(0.996264)"/>
      <use xlink:href="#CMR17-74" transform="translate(801.759865 0) scale(0.996264)"/>
      <use xlink:href="#CMR17-65" transform="translate(837.040633 0) scale(0.996264)"/>
      <use xlink:href="#CMR17-64" transform="translate(877.526293 0) scale(0.996264)"/>
      <use xlink:href="#CMR17-73" transform="translate(958.497629 0) scale(0.996264)"/>
      <use xlink:href="#CMR17-75" transform="translate(994.298967 0) scale(0.996264)"/>
      <use xlink:href="#CMR17-6d" transform="translate(1045.194337 0) scale(0.996264)"/>
      <use xlink:href="#CMR17-6d" transform="translate(1122.113926 0) scale(0.996264)"/>
      <use xlink:href="#CMR17-61" transform="translate(1199.033516 0) scale(0.996264)"/>
      <use xlink:href="#CMR17-74" transform="translate(1244.723993 0) scale(0.996264)"/>
      <use xlink:href="#CMR17-69" transform="translate(1280.004761 0) scale(0.996264)"/>
      <use xlink:href="#CMR17-6f" transform="translate(1304.87582 0) scale(0.996264)"/>
      <use xlink:href="#CMR17-6e" transform="translate(1350.566297 0) scale(0.996264)"/>
     </g>
    </g>
   </g>
  </g>
 </g>
 <defs>
  <clipPath id="p75d012edc8">
   <rect x="80.796303" y="14.810347" width="669.6" height="554.4"/>
  </clipPath>
 </defs>
</svg>
